<svg xmlns="http://www.w3.org/2000/svg" viewBox="0 0 800 450" width="800" height="450" role="img" aria-label="Rotorcraft incident narratives feeding a classifier">
  <defs>
    <linearGradient id="rotor" x1="0" y1="0" x2="1" y2="0">
      <stop offset="0%" stop-color="#e8eef4" stop-opacity="0.35"/>
      <stop offset="45%" stop-color="#e8eef4" stop-opacity="1"/>
      <stop offset="100%" stop-color="#e8eef4" stop-opacity="1"/>
    </linearGradient>
  </defs>

  <rect width="800" height="450" fill="#0e1117"/>

  <g stroke="#8fb6dd" stroke-opacity="0.08" stroke-width="1">
    <path d="M0 120h800M0 225h800M0 330h800"/>
  </g>

  <!-- rotorcraft silhouette, nose right -->
  <g fill="#e8eef4" transform="translate(40 120) scale(0.62)">
    <path d="M392 182 L374 166 L346 150 L250 147 L216 152 L104 164 L104 172 L140 176
             L208 190 Q220 197 240 197 L352 196 Q388 192 392 182 Z"/>
    <path d="M152 166 L120 110 L98 113 L106 168 Z"/>
    <path d="M76 162 L154 158 L154 168 L76 172 Z"/>
    <path d="M338 147 Q338 136 326 134 L254 133 Q244 134 240 140 L236 147 Z"/>
    <path d="M310 134 L308 123 L326 123 L324 134 Z"/>
    <circle cx="317" cy="120" r="8"/>
    <rect x="340" y="195" width="6" height="12"/>
    <circle cx="343" cy="212" r="9"/>
    <rect x="148" y="175" width="5" height="14"/>
    <circle cx="150" cy="194" r="7"/>
  </g>
  <path d="M60 190 L330 194 L330 197 L60 193 Z" fill="url(#rotor)"/>
  <path d="M330 194 L432 191 L432 194 L330 197 Z" fill="#e8eef4" opacity="0.55"/>
  <g transform="rotate(-20 103 199)">
    <rect x="100" y="182" width="5" height="35" rx="2.5" fill="#e8eef4"/>
    <rect x="87" y="197" width="33" height="5" rx="2.5" fill="#e8eef4"/>
  </g>

  <!-- narratives dissolving into a classifier -->
  <g fill="#4dabff">
    <circle cx="470" cy="192" r="5" opacity="0.9"/>
    <circle cx="500" cy="192" r="4.5" opacity="0.65"/>
    <circle cx="528" cy="192" r="4" opacity="0.4"/>
  </g>

  <g stroke="#4dabff" stroke-opacity="0.28" stroke-width="1.2">
    <path d="M576 150 L646 140 M576 150 L646 185 M576 150 L646 230 M576 220 L646 140
             M576 220 L646 185 M576 220 L646 230 M576 290 L646 140 M576 290 L646 185 M576 290 L646 230"/>
    <path d="M646 140 L716 165 M646 185 L716 165 M646 230 L716 165
             M646 140 L716 235 M646 185 L716 235 M646 230 L716 235"/>
  </g>
  <g fill="#4dabff">
    <circle cx="576" cy="150" r="7"/><circle cx="576" cy="220" r="7"/><circle cx="576" cy="290" r="7"/>
  </g>
  <g fill="#8fb6dd">
    <circle cx="646" cy="140" r="7"/><circle cx="646" cy="185" r="7"/><circle cx="646" cy="230" r="7"/>
  </g>
  <g fill="#3ddc84">
    <circle cx="716" cy="165" r="8"/><circle cx="716" cy="235" r="8"/>
  </g>

  <text x="40" y="52" font-family="Helvetica Neue, Helvetica, Arial, sans-serif" font-size="19" font-weight="600" fill="#e8eef4">ASRS incident narratives → taxonomy</text>
  <text x="40" y="418" font-family="Helvetica Neue, Helvetica, Arial, sans-serif" font-size="14" fill="#8fa6bb">Rotorcraft slice, audited against aircraft I have flown</text>
</svg>
